<?xml version="1.0" standalone="no"?>
<!DOCTYPE svg PUBLIC "-//W3C//DTD SVG 20010904//EN"
 "http://www.w3.org/TR/2001/REC-SVG-20010904/DTD/svg10.dtd">
<svg version="1.0" xmlns="http://www.w3.org/2000/svg"
 width="800.000000pt" height="800.000000pt" viewBox="0 0 800.000000 800.000000"
 preserveAspectRatio="xMidYMid meet">
<metadata>
Created by potrace 1.16, written by Peter Selinger 2001-2019
</metadata>
<g transform="translate(0.000000,800.000000) scale(0.100000,-0.100000)"
fill="#000000" stroke="none">
<path d="M2982 7673 c0 -5 -2 -16 -6 -25 -7 -16 -11 -16 -57 2 -27 11 -52 20
-54 20 -14 0 0 -23 35 -59 37 -37 38 -40 17 -43 -12 -2 43 -16 123 -31 161
-31 280 -63 295 -79 7 -7 3 -9 -12 -5 -13 3 -26 1 -29 -5 -3 -5 -17 -7 -30 -4
-14 4 -24 2 -24 -4 0 -5 -8 -10 -17 -10 -17 -1 -17 -2 0 -14 11 -8 14 -17 8
-20 -5 -4 -12 -2 -16 4 -8 13 -55 13 -55 0 0 -5 3 -10 8 -11 4 0 24 -2 44 -4
29 -3 37 0 40 13 2 11 6 13 10 6 4 -6 -2 -21 -13 -32 -19 -21 -17 -27 6 -22 6
1 27 3 48 5 31 3 38 1 33 -11 -3 -8 -1 -14 4 -14 6 0 10 10 10 23 0 12 3 17 8
11 14 -21 47 -33 65 -23 11 7 17 6 17 -1 0 -5 -5 -10 -11 -10 -6 0 -9 -7 -5
-15 3 -10 -1 -15 -14 -15 -10 0 -22 -4 -25 -10 -3 -5 -12 -10 -18 -10 -7 0 -6
4 3 10 13 8 12 10 -3 10 -27 0 -15 -24 14 -28 13 -2 37 -8 52 -14 23 -9 27
-15 22 -35 -4 -16 -1 -25 10 -29 8 -4 15 -17 15 -30 0 -14 7 -27 16 -31 9 -3
20 -15 25 -27 9 -19 9 -19 5 -1 -2 11 -7 29 -10 40 -6 18 -5 17 10 -2 9 -13
22 -23 30 -23 8 0 13 -13 12 -40 0 -23 2 -44 6 -47 3 -4 6 12 6 33 0 22 6 46
13 53 10 10 9 11 -5 6 -11 -4 -18 -2 -18 4 0 6 6 11 14 11 16 0 26 21 26 55 0
13 4 26 9 29 4 3 11 29 15 57 4 29 16 63 27 77 10 14 19 20 19 15 0 -5 -5 -14
-12 -21 -9 -9 -9 -12 0 -12 10 0 29 34 46 80 2 8 2 -12 -1 -44 -5 -43 -3 -57
5 -52 7 4 12 14 12 22 0 8 4 14 9 14 5 0 7 -18 4 -40 -4 -27 -2 -40 6 -40 6 0
14 6 17 14 3 8 12 12 20 9 9 -3 14 1 14 12 0 9 4 13 10 10 13 -8 8 -54 -7 -67
-9 -7 -17 -7 -28 2 -13 11 -18 10 -31 -8 -8 -12 -23 -22 -32 -22 -10 0 -23 -9
-30 -20 -7 -12 -17 -18 -22 -15 -15 9 -12 -12 5 -45 15 -29 15 -30 -7 -31 -13
0 8 -9 46 -19 65 -17 121 -24 175 -21 23 1 24 2 7 14 -18 13 -18 14 0 31 17
17 17 19 1 31 -9 7 -17 24 -17 38 0 21 -4 25 -17 20 -12 -5 -15 -2 -10 10 3 8
1 17 -5 19 -7 3 -6 28 4 83 14 77 15 80 41 80 15 -1 27 3 27 7 0 4 -7 8 -17 8
-9 0 -37 12 -62 27 -29 17 -46 22 -49 15 -2 -7 -8 -12 -13 -12 -6 0 -8 4 -4 9
3 5 1 12 -4 16 -6 3 -7 13 -4 23 4 13 2 13 -10 -3 -8 -11 -13 -24 -9 -30 3 -5
-4 -2 -15 8 -11 9 -25 17 -31 17 -7 0 -12 5 -12 10 0 6 -9 10 -19 10 -10 0
-21 7 -24 15 -4 8 -19 14 -34 14 -53 1 -128 13 -141 23 -7 6 -15 8 -19 4 -3
-3 0 -6 7 -6 7 0 11 -2 8 -5 -8 -9 -38 6 -32 16 3 5 -1 9 -8 10 -7 1 -2 4 12
9 23 6 22 8 -15 14 -22 4 -118 23 -212 42 -174 34 -224 40 -221 27z"/>
<path d="M2945 7399 c-4 -16 -10 -29 -13 -29 -4 0 -8 -12 -9 -27 0 -14 -4 -50
-8 -80 -6 -52 -8 -54 -31 -49 -24 6 -33 -7 -14 -19 6 -3 10 -11 10 -16 0 -6
-5 -7 -11 -3 -7 4 -10 1 -7 -7 3 -8 11 -13 17 -11 6 1 11 -7 11 -19 0 -19 -4
-20 -51 -14 -37 5 -50 4 -45 -4 4 -6 18 -11 31 -11 29 0 55 -9 55 -20 0 -5
-10 -6 -22 -2 -14 3 -19 2 -14 -6 4 -7 14 -12 22 -12 8 0 14 -3 14 -7 0 -14
-35 -211 -45 -253 -3 -14 -11 -64 -17 -113 -11 -82 -11 -89 7 -107 11 -10 36
-22 55 -25 19 -3 53 -10 75 -15 22 -4 67 -11 100 -15 33 -4 65 -11 71 -16 6
-5 35 -12 65 -15 30 -3 59 -10 66 -16 7 -5 17 -7 23 -3 5 3 10 2 10 -2 0 -5
20 -8 45 -9 50 0 64 -9 47 -26 -14 -14 -16 -28 -3 -28 5 0 11 9 14 20 5 21 27
28 27 9 0 -9 -66 -77 -72 -75 -2 1 3 -4 10 -11 22 -19 -6 -27 -33 -9 -22 15
-25 15 -25 1 0 -8 -4 -15 -9 -15 -16 0 -31 27 -25 44 4 10 1 16 -9 16 -9 0
-14 -10 -14 -26 0 -14 -6 -31 -12 -37 -8 -8 -11 -3 -11 21 0 24 -4 30 -15 26
-8 -4 -15 -1 -15 5 0 6 -4 11 -9 11 -8 0 -23 -91 -16 -98 8 -9 125 -31 161
-32 41 0 42 1 48 41 4 23 16 53 26 67 11 13 20 31 20 38 0 8 5 14 10 14 6 0
10 -10 10 -22 0 -32 15 -55 23 -35 3 7 2 19 -3 26 -4 7 1 30 11 51 11 22 19
44 19 50 0 7 6 10 13 7 6 -2 12 -18 12 -35 0 -16 3 -28 7 -26 4 3 5 -1 2 -9
-3 -9 -13 -13 -25 -10 -13 4 -19 0 -19 -11 0 -11 9 -16 29 -16 27 0 30 3 36
44 5 29 13 46 24 49 10 3 8 5 -7 6 -15 1 -26 9 -29 20 -3 12 -11 17 -19 14
-15 -6 -14 29 7 137 35 188 43 250 30 250 -6 0 -11 -15 -12 -32 0 -18 -3 -27
-6 -20 -2 6 -12 12 -21 12 -11 0 -13 -3 -6 -8 6 -4 13 -15 17 -24 5 -15 4 -16
-13 -6 -10 7 -21 20 -23 30 -3 10 -14 18 -26 18 -12 0 -21 6 -21 16 0 22 -27
46 -48 42 -10 -2 -17 -12 -16 -26 0 -12 -3 -22 -8 -22 -4 0 -8 7 -8 16 0 9 -5
12 -12 8 -7 -4 -5 2 5 13 30 34 6 34 -37 -1 -62 -50 -75 -54 -34 -10 36 38 37
41 20 58 -16 18 -16 18 11 12 16 -4 27 -2 27 4 0 6 -13 13 -30 16 -16 4 -27
11 -24 16 3 5 15 6 27 2 12 -3 19 -3 15 1 -4 4 -23 9 -41 10 -34 3 -34 2 -46
-51 -12 -52 -23 -65 -36 -44 -4 6 -11 7 -17 4 -8 -5 -9 11 -4 54 l7 61 -38 6
c-61 10 -65 13 -61 42 3 27 5 28 55 25 50 -4 51 -3 46 20 -4 18 -3 20 6 8 8
-12 11 -4 11 33 0 33 5 49 15 53 29 12 14 21 -49 30 -53 8 -66 7 -75 -6 -9
-13 -10 -13 -5 3 4 9 1 17 -5 17 -12 0 -20 -27 -25 -88 -2 -23 -7 -46 -11 -50
-4 -4 -4 29 -1 73 4 44 10 83 14 87 4 3 41 0 82 -7 92 -17 103 -18 95 -5 -3 6
-17 10 -31 10 -28 0 -30 7 -7 32 15 17 15 18 0 18 -10 0 -17 -4 -17 -9 0 -15
-56 -32 -83 -26 -28 7 -43 30 -26 41 6 3 16 1 22 -5 6 -6 24 -11 39 -11 l28 0
-20 20 c-11 11 -20 27 -20 36 0 15 -2 15 -23 1 -24 -16 -74 -16 -97 -2 -8 5
-24 10 -36 11 -18 2 -24 -4 -29 -27z"/>
<path d="M4030 7390 c19 -5 71 -16 115 -25 44 -9 118 -27 165 -39 77 -22 334
-74 404 -82 16 -2 45 -8 66 -14 21 -6 45 -8 53 -4 9 3 21 3 27 -1 6 -4 43 -9
82 -11 39 -2 73 -6 75 -8 2 -2 -1 -15 -7 -30 -13 -35 -14 -77 -1 -57 5 8 16
11 26 8 9 -4 14 -3 10 3 -3 6 0 10 7 10 10 0 10 2 -1 9 -8 5 -15 19 -16 30 -1
18 3 20 34 16 149 -18 148 -17 129 -62 -6 -15 -10 -32 -9 -37 1 -4 -31 -5 -70
-1 -85 9 -89 -9 -4 -20 30 -3 55 -9 55 -11 0 -3 -7 -19 -16 -35 -8 -17 -13
-36 -10 -42 2 -7 8 -2 12 11 5 18 9 20 20 11 16 -13 19 2 3 18 -7 7 -6 12 6
17 9 3 13 2 10 -4 -3 -6 -2 -10 3 -10 5 0 17 18 28 40 10 22 24 42 30 44 7 2
1 -16 -13 -41 -13 -25 -22 -52 -19 -59 3 -7 -1 -15 -9 -18 -12 -4 -44 -65 -60
-115 -5 -17 -2 -21 17 -22 20 -1 21 -2 3 -6 -21 -5 -55 -32 -55 -43 0 -4 11
-13 25 -20 14 -7 40 -36 57 -64 50 -78 82 -103 128 -96 11 1 10 -4 -5 -21 -41
-48 -58 -50 -103 -11 -33 28 -66 117 -55 151 4 14 3 14 -5 1 -9 -12 -13 -9
-21 13 -6 15 -15 27 -21 27 -11 0 -23 -39 -18 -61 2 -8 -3 -13 -9 -12 -8 2
-15 -13 -19 -37 -4 -21 -11 -38 -16 -37 -20 4 -19 -22 1 -42 12 -12 21 -25 21
-31 0 -5 6 -10 13 -10 9 0 9 -2 0 -8 -16 -10 -5 -52 13 -52 8 0 14 -5 14 -12
0 -9 3 -9 12 0 14 14 28 16 28 3 0 -5 14 -23 30 -41 36 -39 38 -63 5 -97 -18
-20 -25 -23 -29 -12 -27 86 -41 117 -50 111 -20 -13 -51 -7 -50 9 1 11 -12 19
-43 26 -32 8 -43 7 -40 -1 2 -6 15 -10 27 -8 13 1 21 -1 17 -4 -9 -9 41 -47
52 -40 16 10 42 -6 37 -21 -4 -8 7 -31 24 -51 16 -20 30 -44 30 -53 0 -9 9
-24 20 -34 23 -21 26 -9 5 19 -12 16 -12 22 2 42 19 29 46 31 73 4 27 -27 25
-37 -7 -54 l-28 -14 27 -13 c16 -7 25 -17 21 -23 -4 -6 1 -5 10 2 12 11 20 11
34 2 16 -10 16 -11 1 -6 -12 3 -18 0 -18 -10 0 -10 7 -13 23 -9 15 4 29 0 41
-14 17 -19 17 -20 -11 -35 l-28 -15 25 0 c37 -1 53 13 46 37 -11 32 -64 72
-97 72 -27 0 -37 9 -24 22 11 10 120 -22 132 -38 7 -10 10 -29 7 -43 l-5 -26
15 27 c13 22 14 36 5 77 -15 69 -6 85 19 33 l20 -44 31 45 c17 25 31 50 31 56
0 6 4 11 8 11 5 0 15 12 23 28 8 15 18 30 23 34 6 4 4 13 -4 23 -7 9 -9 15 -4
14 21 -4 34 2 34 16 0 8 4 15 8 15 15 0 92 129 90 151 -2 12 4 24 12 27 13 5
13 3 1 -11 -11 -15 -11 -17 2 -17 16 0 49 59 40 73 -3 4 1 7 8 5 12 -2 69 45
69 58 0 8 63 74 67 70 2 -2 -7 -20 -21 -41 -21 -31 -23 -40 -13 -56 10 -16 13
-17 15 -4 4 17 18 20 27 4 8 -12 -24 -51 -36 -43 -5 3 -6 -2 -3 -10 4 -11 0
-16 -10 -16 -9 0 -16 -5 -16 -11 0 -6 -12 -26 -26 -45 -21 -27 -23 -34 -10
-34 14 0 21 11 17 33 0 4 3 7 9 7 13 0 140 126 140 139 0 6 4 10 8 9 4 -2 25
14 46 35 22 20 44 37 50 37 6 0 17 9 24 20 7 11 19 20 26 20 16 0 37 18 61 52
12 18 29 23 87 28 l73 6 -47 14 c-26 8 -45 18 -42 22 3 4 -5 12 -17 16 -15 6
-18 11 -11 16 18 11 14 24 -9 31 -12 4 -18 12 -15 21 3 9 -1 14 -14 14 -10 0
-22 5 -26 11 -4 8 3 9 22 5 16 -3 70 -13 119 -21 50 -8 113 -20 140 -25 28 -6
82 -15 120 -20 39 -5 120 -19 180 -30 173 -31 534 -89 603 -96 39 -4 62 -3 62
3 0 9 -103 33 -205 47 -68 10 -542 85 -700 111 -143 24 -262 45 -780 136 -280
49 -671 116 -704 121 -13 1 -26 -2 -28 -9 -3 -7 16 -15 49 -21 29 -6 94 -18
143 -27 82 -15 135 -35 92 -35 -9 0 -21 -8 -26 -19 -9 -17 -15 -17 -76 -6 -37
7 -68 9 -71 4 -3 -5 -15 -9 -27 -8 -20 1 -20 2 3 8 24 7 24 7 -9 14 -18 4 -48
7 -66 7 -19 0 -36 6 -39 13 -2 6 -3 1 -2 -12 2 -14 11 -28 22 -32 18 -7 18 -8
-1 -7 -32 1 -84 15 -60 17 17 1 15 4 -9 16 -15 8 -34 15 -42 15 -7 0 -19 9
-27 20 -8 11 -17 17 -20 13 -4 -3 -2 -12 5 -20 6 -7 8 -17 4 -21 -4 -4 -13 0
-20 9 -14 20 -86 52 -86 39 0 -5 12 -16 28 -25 l27 -16 -35 7 c-19 3 -40 13
-47 21 -6 8 -16 12 -22 9 -5 -4 -13 -1 -17 5 -3 6 -19 9 -35 5 -16 -3 -29 -2
-29 3 0 4 -26 14 -57 21 -32 7 -64 15 -72 18 -10 4 -12 1 -6 -9 7 -11 6 -12
-6 -2 -18 14 -133 37 -151 30 -7 -3 -2 -6 12 -6 l25 -1 -29 -15 c-30 -16 -111
-11 -248 15 -61 12 -109 12 -58 0z"/>
<path d="M2608 6740 c-3 -31 2 -47 19 -68 12 -15 22 -31 23 -36 0 -8 144 -204
195 -266 45 -55 245 -249 315 -306 84 -68 253 -184 268 -184 6 0 12 -4 14 -9
3 -7 182 -97 248 -123 14 -6 42 -19 62 -30 20 -10 40 -18 45 -16 4 1 27 -4 51
-11 23 -6 47 -9 52 -6 6 4 13 -1 16 -9 3 -9 17 -16 29 -16 13 0 36 -5 50 -10
35 -13 201 -32 298 -33 58 -1 81 3 88 14 6 10 9 10 9 2 0 -8 14 -13 36 -13 32
0 35 2 29 23 l-7 22 17 -22 c16 -23 45 -31 45 -13 0 5 13 7 29 4 16 -3 39 0
52 7 13 7 42 14 64 16 50 5 166 39 223 65 37 18 55 20 120 14 42 -4 92 -9 111
-13 26 -4 33 -3 29 8 -3 9 7 19 25 27 17 7 27 15 24 18 -3 4 -1 12 6 18 9 9
32 10 82 5 95 -11 159 -9 80 2 -154 21 -226 47 -265 96 -24 31 -50 88 -50 110
0 22 54 10 111 -26 40 -25 125 -56 91 -33 -11 7 -11 12 2 25 21 21 20 27 -3
27 -11 0 -23 5 -26 10 -3 6 -14 10 -23 10 -9 0 -39 11 -67 24 l-50 24 70 1
c39 0 77 -4 85 -10 11 -8 1 -9 -35 -4 -47 6 -49 5 -29 -9 28 -20 115 -40 123
-28 3 5 13 11 21 14 12 5 11 7 -5 12 -11 4 -49 21 -84 39 -55 27 -69 40 -91
82 -15 28 -30 61 -34 75 -7 24 -7 24 17 -5 14 -16 33 -38 41 -47 9 -10 14 -18
11 -18 -3 0 3 -9 12 -20 13 -14 29 -20 58 -19 39 1 39 1 9 8 -17 4 -36 11 -42
15 -15 9 -102 124 -102 135 0 24 -56 104 -93 131 -43 32 -57 37 -57 20 0 -5 6
-10 14 -10 23 0 103 -87 116 -126 13 -40 6 -60 -9 -23 -5 13 -19 34 -30 46
-12 12 -21 27 -21 33 0 5 -4 10 -8 10 -5 0 -23 13 -42 30 -18 16 -37 27 -41
24 -5 -3 3 -15 17 -28 23 -19 25 -25 15 -44 -6 -12 -16 -22 -21 -22 -6 0 -10
-4 -10 -9 0 -5 12 -8 26 -8 18 0 22 2 13 8 -20 12 22 12 55 0 25 -10 57 -69
71 -132 4 -19 16 -45 26 -58 31 -39 14 -36 -45 9 -34 26 -56 50 -56 61 0 12
-10 23 -25 29 -14 5 -25 16 -25 24 0 18 31 29 55 20 13 -5 16 -3 13 7 -3 8
-10 14 -16 13 -7 -1 -26 -2 -43 -2 -22 -2 -30 -6 -26 -16 3 -8 -1 -13 -11 -12
-12 1 -18 -8 -20 -30 -5 -49 89 -135 131 -118 7 2 21 -2 32 -10 20 -15 20 -15
0 -16 -43 0 -105 27 -145 62 -23 21 -39 42 -35 48 3 5 2 10 -3 10 -21 0 -21
34 -1 66 17 29 18 34 5 34 -9 0 -16 5 -16 10 0 6 7 10 15 10 8 0 15 9 15 20 0
11 -5 20 -11 20 -20 0 -40 -30 -38 -58 2 -15 -2 -36 -8 -47 -6 -11 -8 -27 -5
-35 4 -12 1 -11 -15 3 -11 9 -25 17 -31 17 -7 0 -12 4 -12 9 0 5 8 7 18 5 18
-5 49 32 37 44 -4 4 -11 -1 -16 -11 -19 -33 -28 -17 -12 21 10 22 16 68 17
114 1 64 -2 81 -18 95 -18 17 -19 17 -12 0 3 -11 9 -40 12 -67 5 -37 2 -48
-10 -53 -9 -4 -16 -12 -16 -19 0 -10 2 -10 9 1 5 8 11 9 15 3 3 -5 -1 -13 -10
-16 -10 -4 -13 -13 -9 -25 3 -11 -1 -25 -9 -33 -7 -8 -15 -22 -17 -32 -4 -16
-7 -15 -34 8 -36 31 -56 35 -29 5 16 -17 16 -22 4 -30 -8 -5 -21 -7 -27 -4
-16 6 -17 -7 -1 -23 8 -8 9 -12 1 -12 -6 0 -20 11 -31 25 -30 38 -35 30 -7
-11 25 -37 25 -71 0 -37 -7 10 -11 21 -9 25 3 5 0 8 -6 8 -7 0 -9 -8 -5 -21 6
-16 4 -20 -6 -13 -41 25 -82 -2 -59 -39 12 -20 12 -21 -2 -9 -13 10 -17 10
-21 0 -3 -10 -7 -10 -17 -1 -11 10 -10 14 3 19 19 7 23 44 6 44 -6 0 -9 -7 -5
-15 3 -8 1 -15 -4 -15 -6 0 -10 9 -10 21 0 11 -4 18 -9 15 -4 -3 -8 -16 -7
-28 1 -13 -3 -26 -9 -30 -6 -5 -6 -8 2 -8 7 0 10 -7 7 -15 -4 -8 -14 -15 -23
-15 -14 0 -14 2 -1 10 11 7 11 10 2 10 -7 0 -10 5 -7 10 4 7 -2 9 -19 4 -20
-5 -26 -2 -26 11 0 11 -5 15 -15 11 -10 -3 -15 1 -15 12 -1 16 -1 16 -11 0 -5
-10 -15 -18 -21 -18 -6 0 -5 7 3 17 13 15 11 16 -11 10 -20 -5 -16 1 22 36 27
23 54 58 62 77 22 53 52 76 157 113 150 54 197 85 183 121 -16 43 -91 20 -264
-79 -37 -21 -53 -25 -90 -20 -69 9 -111 9 -150 1 -35 -8 -35 -8 -12 9 13 9 31
18 40 19 25 4 25 23 0 30 -15 5 -18 9 -10 13 8 3 19 0 25 -6 15 -15 27 -14 27
4 0 8 -6 15 -14 15 -8 0 -18 5 -22 11 -4 8 1 9 16 4 15 -5 20 -4 16 4 -5 7 -1
8 10 4 13 -5 16 -3 11 10 -4 10 0 18 13 22 10 3 24 13 32 22 11 14 10 15 -10
9 -17 -6 -21 -4 -16 8 5 12 15 14 45 10 44 -7 48 0 24 46 -10 20 -12 30 -4 30
6 0 13 -9 16 -20 3 -11 12 -20 19 -20 17 0 18 16 2 24 -7 3 1 4 17 1 17 -4 36
-13 43 -22 6 -9 12 -12 12 -6 0 7 -7 18 -15 26 -13 13 -13 16 1 21 25 10 36 7
28 -6 -4 -7 2 -5 13 5 11 10 27 15 37 11 9 -3 16 -1 16 4 0 35 -153 34 -230 0
-116 -52 -197 -191 -188 -324 l4 -65 -35 6 c-20 3 -46 9 -58 12 -20 4 -23 1
-24 -26 -1 -17 -2 -36 -3 -43 -1 -7 31 -19 75 -28 71 -16 78 -20 137 -80 33
-35 64 -70 67 -77 3 -11 14 -13 35 -8 24 5 30 3 30 -9 0 -13 8 -15 38 -11 116
14 143 15 137 5 -7 -11 24 -14 41 -2 7 4 13 16 16 27 3 18 4 18 10 3 11 -27
-19 -49 -61 -47 -37 3 -81 -17 -81 -37 0 -21 -48 -56 -72 -51 -21 4 -21 4 4 6
16 0 32 9 38 20 9 18 8 19 -18 11 -15 -4 -42 -14 -60 -22 l-33 -15 23 -16 c20
-14 20 -16 3 -10 -11 3 -25 10 -31 14 -5 5 -28 3 -50 -3 -50 -15 -49 -14 -33
-32 8 -8 20 -23 28 -31 7 -9 16 -14 19 -11 3 3 -3 15 -13 26 -10 11 -16 22
-14 24 2 2 23 -18 47 -44 24 -28 38 -51 32 -55 -5 -3 -10 -1 -10 4 0 6 -7 11
-15 11 -8 0 -14 6 -13 13 2 6 -5 11 -14 9 -9 -1 -30 14 -48 37 -29 36 -34 38
-63 30 -18 -5 -58 -9 -89 -9 l-57 0 20 -35 c12 -20 16 -35 10 -35 -6 0 -11 4
-11 8 0 5 -10 20 -22 34 -22 24 -31 26 -145 32 -92 4 -123 3 -123 -6 0 -7 -5
-6 -12 4 -9 10 -47 19 -113 27 -55 7 -117 19 -138 27 -20 8 -48 14 -61 14 -12
0 -31 9 -41 20 -10 11 -25 20 -32 20 -17 0 -172 79 -191 98 -16 14 -29 15 -36
3 -6 -9 -46 -22 -46 -15 0 3 12 9 26 14 25 10 25 30 0 30 -21 0 -40 27 -24 33
7 2 -1 7 -17 11 -17 4 -44 18 -60 32 -17 14 -42 33 -57 42 -16 9 -28 20 -28
24 0 13 -36 45 -57 52 -11 4 -25 18 -31 31 -13 29 -34 34 -31 8 3 -31 -1 -43
-12 -43 -5 0 -7 5 -3 12 15 23 12 68 -5 78 -9 5 -13 10 -9 10 4 0 -18 25 -48
56 -30 31 -69 77 -86 103 -17 25 -41 54 -54 64 -13 10 -22 22 -19 27 3 4 -2
13 -10 20 -8 7 -15 19 -15 26 0 33 -18 10 -22 -26z m1767 -323 c24 -37 38 -86
31 -112 -5 -21 -83 -84 -90 -73 -5 7 -66 174 -66 181 0 4 11 7 25 7 14 0 25 5
25 10 0 21 59 10 75 -13z"/>
<path d="M3632 6428 c9 -24 8 -33 0 -36 -7 -2 -12 -8 -12 -13 0 -6 4 -8 9 -5
5 3 51 -3 102 -14 185 -39 334 -68 336 -66 1 1 5 20 8 42 l7 40 -214 42 c-117
23 -221 42 -230 42 -15 0 -15 -4 -6 -32z"/>
<path d="M3873 6275 c-17 -19 -16 -28 2 -21 10 3 15 -1 15 -11 0 -14 -10 -15
-75 -10 -41 4 -81 4 -90 1 -24 -10 -17 -25 9 -18 16 4 25 1 29 -10 4 -9 13
-16 21 -16 8 0 16 -3 18 -8 6 -15 61 -52 69 -46 5 3 9 14 9 24 0 30 30 41 65
23 38 -19 85 -63 85 -79 0 -7 -12 -22 -27 -33 l-28 -20 40 0 c34 0 37 1 21 10
-25 15 0 32 26 18 28 -15 21 4 -12 36 -28 27 -40 55 -22 55 4 0 18 -16 32 -35
26 -35 35 -41 82 -49 20 -3 29 0 33 15 4 10 3 24 0 29 -4 6 -1 17 5 25 15 18
6 45 -15 45 -9 0 -14 -3 -12 -7 2 -5 -1 -23 -7 -41 l-12 -33 -27 25 c-21 20
-27 32 -21 48 6 19 3 20 -23 15 -16 -3 -35 -1 -43 4 -11 8 -9 9 8 4 28 -8 29
9 1 28 -21 15 -59 12 -59 -5 0 -5 9 -6 21 -3 18 6 20 5 10 -14 -8 -14 -8 -21
-1 -21 5 0 10 -5 10 -11 0 -6 -8 -9 -17 -7 -10 2 -18 10 -18 18 0 8 -17 28
-37 45 -21 16 -38 33 -38 37 0 12 -14 9 -27 -7z"/>
<path d="M3558 5740 c-20 -23 -11 -33 52 -55 24 -8 49 -20 55 -25 15 -13 177
-69 230 -80 22 -5 52 -13 67 -19 70 -27 192 -44 333 -47 146 -2 202 2 190 15
-4 3 -39 7 -78 9 -40 2 -94 5 -122 7 -27 1 -68 3 -90 4 -27 1 -36 4 -26 10 24
16 -24 23 -70 11 -54 -15 -74 -8 -58 21 9 17 8 20 -3 17 -7 -3 -13 -11 -13
-18 0 -7 -6 -15 -12 -17 -7 -3 -13 2 -13 10 0 10 -8 13 -27 10 -23 -4 -25 -2
-13 7 12 10 11 11 -8 7 -31 -7 -23 15 9 24 24 7 24 7 -3 8 -15 1 -30 -3 -33
-9 -3 -5 -14 -10 -23 -10 -15 1 -14 3 3 16 19 15 18 16 -17 10 -30 -5 -37 -3
-41 11 -4 17 -5 17 -6 1 -1 -19 -21 -24 -36 -9 -6 5 -28 11 -49 13 -22 2 -41
9 -43 15 -5 14 43 23 56 10 8 -8 11 -8 11 0 0 6 -7 14 -17 17 -20 8 -85 -12
-78 -25 4 -5 -2 -6 -11 -2 -14 5 -12 8 10 20 14 7 26 15 26 16 0 2 -30 3 -67
2 -65 0 -68 1 -65 23 4 26 2 26 -20 2z"/>
<path d="M2740 5209 c-19 -11 -48 -39 -65 -62 -27 -38 -30 -49 -30 -117 0
-105 37 -170 119 -212 146 -75 303 61 268 231 -23 109 -105 181 -206 181 -33
0 -63 -8 -86 -21z m163 -13 c31 -13 85 -62 76 -70 -2 -2 -65 -15 -139 -30 -74
-14 -146 -29 -159 -32 -21 -5 -23 -3 -17 22 10 39 43 83 80 105 37 23 112 25
159 5z m113 -238 c-16 -82 -87 -140 -171 -140 -40 0 -117 30 -129 51 -5 8 71
22 207 37 55 7 58 8 57 33 -3 45 -1 51 21 51 19 0 21 -4 15 -32z"/>
<path d="M5999 5196 c16 -19 109 -59 218 -94 82 -26 91 -28 83 -12 -6 10 -10
30 -10 44 0 25 2 26 43 20 23 -4 39 -4 36 0 -4 4 -35 12 -70 17 -290 45 -318
47 -300 25z"/>
<path d="M6389 5152 c-1 -4 -1 -15 0 -24 2 -12 -5 -18 -18 -18 -11 0 -22 -4
-25 -8 -6 -10 163 -66 259 -86 39 -8 77 -17 85 -20 10 -4 26 7 44 30 23 29 26
38 15 45 -35 22 -125 49 -211 64 -51 8 -105 17 -120 20 -16 2 -29 1 -29 -3z"/>
<path d="M3377 5075 c-104 -36 -152 -153 -116 -276 34 -112 168 -179 272 -135
138 57 166 248 54 359 -62 62 -133 80 -210 52z m111 -11 c31 -6 112 -68 112
-85 0 -5 -13 -9 -29 -9 -40 0 -139 -24 -230 -55 -41 -14 -77 -23 -79 -20 -9 9
31 97 56 122 46 46 100 61 170 47z m149 -187 c11 -104 -59 -195 -156 -205 -65
-6 -110 10 -155 56 l-37 39 56 12 c30 7 91 26 135 42 45 16 89 29 99 29 22 0
31 19 31 68 0 56 20 25 27 -41z"/>
<path d="M5869 5042 c34 -118 120 -168 313 -180 l106 -7 -15 29 c-8 15 -13 37
-10 47 4 15 0 19 -22 19 -53 0 -185 40 -263 80 -98 49 -120 52 -109 12z"/>
<path d="M6283 4944 c9 -10 14 -11 52 -13 30 -1 34 -26 5 -34 -11 -3 -20 -10
-20 -16 0 -6 3 -10 8 -9 4 1 39 -7 77 -19 63 -20 265 -58 269 -51 1 2 10 15
19 30 9 15 17 31 17 36 0 19 -118 48 -258 62 -53 5 -115 13 -137 16 -22 4 -36
2 -32 -2z"/>
<path d="M5730 4796 c0 -18 164 -80 303 -116 84 -21 161 -42 172 -46 18 -6 18
-5 4 7 -9 8 -19 29 -23 48 l-6 34 37 -7 c21 -3 44 -6 51 -6 22 0 13 -37 -10
-45 -19 -5 -11 -11 47 -31 63 -23 146 -46 260 -73 38 -9 41 -8 67 22 15 18 27
35 28 39 0 9 -102 46 -175 63 -55 13 -210 38 -310 49 -22 3 -96 17 -165 31
-129 27 -280 43 -280 31z"/>
<path d="M5255 4613 c34 -26 156 -79 245 -106 77 -23 196 -49 425 -93 44 -8
91 -17 105 -20 23 -5 24 -5 8 13 -10 10 -20 38 -24 62 -7 43 -6 44 17 37 13
-3 43 -9 67 -13 32 -4 42 -10 38 -20 -4 -8 -6 -19 -6 -24 0 -5 -11 -9 -25 -9
-14 0 -25 -4 -25 -10 0 -5 6 -10 14 -10 8 0 67 -18 132 -39 66 -21 153 -44
194 -51 41 -7 85 -16 97 -21 18 -7 27 -2 52 33 17 23 31 45 31 50 0 4 -17 15
-37 24 -84 35 -167 54 -343 78 -197 27 -231 33 -435 72 -228 42 -386 64 -469
64 -76 -1 -80 -2 -61 -17z"/>
<path d="M5273 4395 c-15 -7 -37 -22 -48 -34 -16 -19 -17 -24 -5 -31 8 -6 27
-10 42 -10 15 0 65 -9 110 -19 46 -11 189 -40 318 -66 129 -26 260 -56 290
-66 58 -19 84 -16 52 7 -11 7 -22 27 -24 44 -5 33 6 37 71 24 35 -7 42 -31 9
-36 -30 -4 -36 -28 -6 -28 13 0 61 -13 105 -30 45 -16 121 -36 170 -44 48 -9
100 -18 114 -22 21 -5 29 1 52 33 15 22 27 42 27 45 0 8 -102 41 -185 62 -74
18 -208 35 -295 39 -36 1 -67 5 -70 8 -3 3 -77 18 -165 33 -88 15 -227 41
-310 58 -82 17 -166 34 -187 38 -22 4 -47 2 -65 -5z"/>
<path d="M5165 4159 c16 -42 188 -126 417 -203 111 -38 314 -96 333 -96 3 0
10 12 15 26 8 20 15 25 31 21 15 -4 23 0 26 14 6 23 17 21 149 -27 50 -18 126
-40 169 -49 43 -8 87 -21 98 -27 18 -9 25 -6 54 28 18 21 33 42 33 45 0 10
-94 45 -180 69 -67 18 -185 41 -365 71 -33 6 -96 19 -140 30 -377 91 -654 134
-640 98z"/>
<path d="M2505 4132 c30 -5 30 -5 5 -11 -38 -10 -35 -35 9 -82 22 -24 38 -46
35 -51 -12 -20 180 -126 366 -203 303 -125 1078 -365 1468 -455 28 -7 52 -17
52 -22 0 -6 -8 -7 -17 -4 -9 4 -37 11 -62 17 -58 12 -304 79 -484 131 -76 22
-140 38 -143 36 -6 -6 153 -56 376 -118 102 -29 214 -60 249 -71 76 -23 95
-24 114 -5 8 8 40 33 72 55 50 35 61 39 74 28 22 -19 86 -16 86 3 0 11 -10 15
-37 14 -35 -1 -38 1 -38 25 0 37 42 121 76 152 38 35 79 60 86 54 3 -3 8 1 12
10 3 9 -1 18 -10 22 -21 8 -164 44 -414 103 -118 29 -237 58 -265 65 -95 25
-523 123 -938 216 -242 54 -430 82 -622 92 -44 3 -66 2 -50 -1z"/>
<path d="M2265 3794 c-76 -19 -157 -68 -148 -90 3 -8 14 -14 24 -14 12 0 19
-7 19 -20 0 -10 10 -25 23 -31 12 -7 40 -23 62 -37 74 -47 452 -172 1145 -378
47 -14 99 -29 115 -34 17 -5 55 -16 85 -24 30 -8 96 -27 145 -41 92 -26 212
-59 275 -75 19 -5 53 -14 75 -20 22 -6 56 -15 75 -20 19 -5 76 -20 125 -33
155 -42 142 -42 148 -1 8 51 61 127 118 173 l49 39 -67 16 c-38 9 -115 30
-173 46 -142 41 -349 97 -440 121 -41 11 -114 31 -162 44 -49 14 -127 36 -175
49 -91 25 -328 92 -443 125 -95 27 -186 54 -455 132 -186 55 -258 71 -320 74
-44 2 -89 2 -100 -1z"/>
<path d="M5013 3555 c-22 -19 -48 -50 -56 -68 -14 -29 -21 -34 -49 -33 -18 1
-43 7 -56 14 -20 12 -29 9 -77 -18 -30 -17 -58 -37 -62 -43 -5 -9 -3 -9 8 -1
36 29 199 28 199 -1 0 -9 34 -24 90 -41 90 -27 90 -27 90 -60 0 -51 19 -82 65
-104 62 -30 142 -29 195 2 l41 25 132 -44 c72 -24 197 -59 277 -79 167 -40
234 -65 291 -106 46 -33 54 -32 144 17 82 45 172 135 136 135 -5 0 -11 8 -13
18 -5 20 -204 121 -355 180 -130 52 -365 126 -483 152 -258 58 -418 90 -446
90 -20 0 -44 -11 -71 -35z"/>
<path d="M1898 3472 c38 -35 82 -65 82 -55 0 4 21 -13 48 -38 26 -25 67 -57
92 -71 105 -59 129 -73 210 -113 256 -130 411 -188 855 -325 182 -55 371 -114
420 -130 50 -15 137 -43 195 -60 58 -17 116 -35 130 -40 28 -10 243 -75 278
-85 17 -5 22 -2 22 12 0 25 46 120 74 153 12 15 39 42 60 60 36 32 36 32 71
16 52 -25 224 -61 235 -50 6 6 3 10 -8 11 -64 4 -242 52 -242 65 0 3 -46 21
-102 38 -317 96 -695 210 -898 270 -96 28 -186 55 -200 60 -14 5 -79 25 -145
45 -66 20 -160 49 -210 65 -202 63 -489 129 -740 170 -154 26 -186 26 -178 3
3 -10 13 -24 21 -30 9 -7 13 -15 11 -18 -8 -7 -60 45 -54 55 5 9 -18 20 -42
20 -10 0 -5 -10 15 -28z m1638 -422 c5 -5 34 -16 64 -23 44 -12 54 -18 52 -33
-2 -10 -11 -23 -19 -29 -9 -7 -13 -18 -10 -26 4 -10 6 -9 6 4 1 9 8 17 16 17
9 0 15 9 15 21 0 16 4 19 18 14 9 -4 25 -7 35 -7 9 0 17 -3 17 -8 0 -4 8 -7
18 -6 17 1 19 -6 7 -36 -6 -14 -2 -18 15 -18 25 0 135 -48 127 -56 -3 -3 -24
0 -46 6 -28 7 -39 15 -34 23 4 7 -1 6 -11 -2 -16 -14 -15 -15 11 -27 70 -31
-16 -7 -274 76 -34 11 -69 17 -77 14 -10 -4 -16 -1 -16 9 0 8 7 18 16 21 9 3
14 13 11 20 -3 8 1 17 8 20 8 3 12 12 9 21 -7 17 25 22 42 5z"/>
<path d="M6553 3203 c-7 -27 -37 -149 -67 -273 -93 -373 -192 -721 -281 -985
-46 -137 -109 -328 -139 -422 -58 -183 -148 -442 -266 -763 -39 -107 -75 -211
-80 -230 -5 -19 -18 -73 -30 -119 -11 -46 -23 -87 -25 -91 -3 -4 -44 5 -92 20
-260 83 -361 115 -593 190 -140 45 -300 96 -355 115 -99 32 -275 88 -530 167
-71 22 -193 60 -270 84 -77 25 -178 56 -225 71 -133 40 -443 138 -760 238 -91
29 -205 65 -255 80 -49 15 -115 35 -145 45 -30 10 -95 31 -145 45 -49 14 -110
33 -135 41 -25 9 -99 31 -165 50 -66 20 -140 41 -165 49 -25 7 -189 56 -365
110 -391 119 -410 124 -560 169 -66 19 -141 42 -167 50 -27 8 -48 11 -48 7 0
-4 71 -28 158 -54 265 -80 452 -136 567 -171 61 -19 164 -51 230 -70 183 -56
317 -97 345 -106 14 -5 72 -23 130 -40 135 -40 302 -92 565 -176 116 -36 264
-83 330 -104 66 -20 172 -54 235 -74 63 -21 171 -55 240 -76 69 -21 193 -59
275 -85 83 -26 170 -52 193 -58 41 -10 43 -13 38 -39 -5 -24 -2 -28 27 -36 18
-5 109 -33 202 -62 94 -29 190 -58 215 -65 25 -8 110 -35 190 -60 80 -26 172
-55 205 -65 33 -10 177 -55 320 -100 494 -155 554 -173 567 -168 12 5 46 106
141 418 20 63 62 203 95 310 33 107 68 222 77 255 9 33 29 103 45 155 16 52
49 163 73 245 25 83 73 245 107 360 34 116 90 302 125 415 59 192 94 308 179
590 19 63 37 123 41 132 5 13 0 19 -20 24 -25 6 -26 9 -20 55 9 62 3 63 -12 2z"/>
<path d="M2060 3174 c-25 -13 -51 -24 -58 -24 -7 0 -11 -4 -7 -10 3 -6 15 -5
30 2 31 14 61 -9 71 -56 3 -17 11 -37 17 -44 7 -9 7 -16 -1 -24 -18 -18 -14
-36 9 -43 11 -4 19 -11 17 -17 -2 -5 -63 -37 -136 -72 -123 -58 -195 -99 -107
-61 147 64 249 105 253 101 2 -3 -8 -20 -23 -37 -96 -115 -357 -230 -515 -228
-95 1 -116 9 -112 42 3 22 0 27 -20 27 -18 0 -28 11 -47 55 -13 30 -21 62 -17
70 3 9 31 27 62 42 30 14 53 27 50 30 -2 3 -26 -5 -51 -16 -26 -12 -53 -21
-59 -21 -7 0 -21 -7 -32 -16 -18 -14 -18 -15 4 -4 12 6 22 8 22 5 0 -8 -22
-47 -38 -67 -11 -14 -9 -25 17 -76 51 -101 123 -145 299 -182 96 -21 192 -61
192 -80 0 -5 -9 -16 -21 -24 -13 -9 -18 -19 -14 -27 5 -7 4 -10 -3 -5 -6 3
-13 2 -17 -4 -3 -5 -2 -10 3 -10 5 0 6 -20 2 -47 -4 -25 -5 -55 -2 -66 3 -14
1 -18 -6 -13 -18 11 -14 -10 6 -30 16 -17 17 -17 20 2 5 27 42 64 64 64 10 0
18 5 18 10 0 7 7 7 20 0 19 -10 20 -9 15 17 l-6 28 18 -24 c9 -13 38 -78 63
-145 42 -110 107 -244 177 -369 38 -67 147 -202 180 -224 19 -12 46 -18 88
-18 52 0 67 4 99 28 20 16 45 45 54 64 15 32 15 38 -2 86 -28 83 -119 265
-176 352 -29 44 -92 130 -140 190 -48 61 -95 122 -104 137 l-18 27 80 -2 c44
-1 83 -5 87 -9 4 -3 2 -17 -5 -30 -11 -23 -11 -23 10 2 17 19 21 33 17 63 -12
88 -98 124 -227 95 -12 -2 -14 8 -12 55 3 41 15 81 42 140 63 134 65 196 8
283 -18 27 -35 51 -39 54 -3 3 -9 15 -13 26 -4 12 -14 28 -24 37 -15 14 -21
13 -62 -9z"/>
<path d="M6487 3138 c-27 -76 -98 -308 -153 -503 -30 -104 -77 -257 -103 -340
-226 -694 -295 -908 -331 -1025 -23 -74 -84 -256 -136 -404 -52 -148 -92 -271
-90 -273 5 -6 113 246 170 399 64 170 137 386 201 593 25 83 50 159 55 170 5
11 24 65 41 120 18 55 36 105 41 112 5 7 7 17 3 23 -6 10 -4 21 21 85 4 11 15
49 24 85 10 36 36 124 58 195 64 204 224 796 218 803 -2 2 -11 -16 -19 -40z"/>
<path d="M4855 3114 c-22 -15 -56 -48 -75 -75 -29 -40 -40 -48 -65 -47 -16 1
-38 -2 -47 -6 -13 -6 -18 -4 -18 8 0 36 -87 12 -107 -30 -11 -23 -10 -25 5
-18 9 5 54 10 98 12 72 3 82 1 86 -15 4 -12 30 -26 82 -43 85 -27 88 -29 92
-73 7 -96 150 -149 256 -94 l47 24 143 -49 c79 -27 220 -69 314 -93 157 -40
217 -63 299 -115 l30 -19 59 30 c76 39 119 72 157 121 39 49 37 52 -99 125
-287 154 -617 263 -1058 352 -84 17 -154 31 -155 31 -2 0 -22 -12 -44 -26z"/>
<path d="M4708 2753 c-1 -5 -22 -20 -45 -35 -23 -15 -53 -43 -68 -62 l-27 -35
-65 6 c-49 5 -64 3 -59 -5 4 -7 1 -12 -8 -12 -9 0 -16 5 -16 10 0 6 -12 10
-27 10 -18 0 -39 -14 -69 -44 -23 -24 -52 -46 -65 -48 -12 -2 -24 -7 -26 -13
-6 -18 52 -10 91 13 46 27 107 37 171 28 39 -6 45 -10 40 -26 -6 -19 31 -37
143 -70 38 -12 42 -16 42 -44 0 -104 132 -164 259 -119 l47 16 143 -52 c135
-49 331 -109 411 -126 45 -10 158 -67 197 -99 39 -33 54 -33 130 4 59 27 183
133 183 156 0 5 -9 14 -19 19 -11 6 -73 42 -138 81 -286 173 -560 280 -1071
418 -143 39 -149 40 -154 29z"/>
<path d="M2836 2692 c-8 -13 11 -33 74 -74 30 -21 61 -46 67 -57 18 -28 46
-41 234 -109 171 -62 242 -85 681 -227 162 -52 271 -93 277 -102 5 -9 33 -24
62 -33 30 -10 61 -21 70 -24 13 -6 19 3 28 40 17 66 43 113 90 161 34 35 38
42 24 47 -10 3 -119 36 -243 75 -410 127 -888 253 -1085 285 -123 20 -272 29
-279 18z"/>
<path d="M2906 2472 c-2 -4 4 -9 15 -9 41 -3 50 -22 48 -102 -1 -42 1 -111 4
-154 5 -70 9 -82 42 -126 80 -105 199 -190 375 -267 188 -83 358 -134 580
-173 63 -12 127 -23 141 -26 24 -5 27 -2 33 27 18 97 108 224 151 213 63 -16
220 -34 227 -27 6 6 -21 12 -64 16 -85 9 -160 24 -168 35 -3 4 -61 22 -130 41
-449 120 -785 271 -1022 460 -37 29 -60 39 -103 45 -47 5 -58 11 -65 31 -7 16
-17 24 -34 24 -14 0 -27 -4 -30 -8z m244 -172 c0 -5 7 -6 17 -3 11 4 14 3 9
-5 -4 -8 0 -12 11 -12 11 0 41 -14 68 -31 36 -23 45 -33 35 -39 -9 -5 -20 -4
-27 2 -15 12 -17 0 -4 -21 8 -12 12 -12 26 2 18 19 41 22 50 7 4 -6 -6 -10
-22 -11 l-28 -1 25 -10 c28 -11 49 -46 42 -67 -3 -8 -10 -1 -18 18 -11 26 -18
31 -47 31 -19 0 -43 -8 -54 -17 -10 -10 -13 -14 -6 -9 19 13 29 -2 11 -17 -8
-6 -32 -36 -53 -66 -33 -46 -37 -56 -26 -73 11 -17 10 -18 -7 -9 -33 17 -143
145 -137 159 2 7 1 11 -4 7 -15 -9 -19 19 -4 33 15 16 17 32 3 32 -12 0 -13
37 -1 44 5 4 7 -3 4 -14 -4 -14 0 -20 11 -20 9 0 16 5 16 11 0 5 4 8 9 4 5 -3
12 3 16 14 10 33 46 71 66 71 10 0 19 -4 19 -10z"/>
<path d="M3092 2253 c-39 -51 -50 -72 -52 -108 -3 -44 -1 -55 10 -55 6 0 10
18 10 40 0 44 24 90 46 90 20 0 17 -15 -11 -60 -28 -44 -32 -85 -10 -94 12 -4
13 -2 3 14 -10 15 -9 23 3 37 8 10 20 31 27 46 6 15 18 30 26 33 8 3 12 12 9
20 -4 11 0 12 26 3 29 -10 36 -23 32 -56 -1 -7 3 -13 8 -13 30 0 30 53 0 86
-11 11 -16 24 -12 29 5 4 3 5 -4 1 -7 -4 -26 0 -42 9 -17 8 -32 15 -35 15 -2
0 -18 -17 -34 -37z"/>
<path d="M4688 2235 c-26 -25 -50 -55 -53 -66 -6 -19 -12 -20 -59 -15 -65 9
-102 -5 -138 -49 -18 -21 -44 -38 -73 -46 -48 -14 -56 -24 -27 -31 22 -6 62 8
62 21 0 15 104 60 126 56 72 -14 74 -16 73 -38 0 -12 -3 -16 -6 -9 -2 6 -14
12 -25 12 -18 0 -19 -4 -13 -37 14 -79 81 -131 172 -132 45 -1 123 25 123 40
0 17 41 9 137 -30 110 -43 345 -119 471 -151 102 -26 184 -62 233 -101 l38
-30 58 33 c53 29 173 140 173 159 0 19 -325 196 -430 234 -192 70 -251 90
-357 120 -121 34 -336 88 -403 100 -32 6 -39 2 -82 -40z"/>
<path d="M4496 1770 c-66 -68 -70 -70 -116 -70 -65 0 -97 -13 -149 -63 l-44
-42 6 35 c4 19 9 46 13 59 5 16 4 22 -4 18 -5 -4 -13 -26 -17 -48 -4 -23 -16
-48 -26 -57 -25 -21 -24 -30 4 -34 14 -2 35 8 59 29 47 41 103 58 162 49 41
-6 46 -10 46 -32 0 -16 -5 -24 -12 -21 -7 2 -12 9 -11 15 1 5 -7 12 -17 15
-34 9 -30 -52 6 -100 54 -72 186 -84 269 -24 l44 32 83 -34 c123 -51 285 -101
487 -152 185 -45 221 -59 279 -102 22 -16 41 -23 55 -19 67 16 211 150 205
190 -6 43 -339 192 -623 278 -168 51 -576 148 -624 148 -4 0 -38 -31 -75 -70z"/>
<path d="M2755 1760 c-5 -8 -3 -11 5 -8 20 6 103 -17 108 -30 3 -11 -46 -18
-85 -13 -26 4 -11 -10 55 -53 85 -55 132 -79 132 -68 0 5 -26 23 -59 40 -57
31 -94 62 -73 62 22 0 42 -13 35 -23 -3 -6 -1 -7 6 -3 6 4 30 -8 54 -27 23
-19 53 -40 65 -46 13 -7 21 -15 18 -18 -8 -8 31 -36 91 -67 74 -37 388 -171
513 -218 58 -22 128 -51 156 -64 28 -13 57 -24 65 -24 8 0 26 -6 41 -14 30
-16 38 -12 38 18 0 57 85 179 159 229 14 9 22 19 19 22 -3 3 -131 43 -284 90
-154 46 -297 90 -319 98 -121 43 -414 97 -531 97 -36 0 -73 4 -83 9 -32 17
-118 24 -126 11z"/>
<path d="M4300 1340 c-33 -33 -60 -64 -60 -69 0 -13 -31 -19 -56 -10 -11 4
-42 3 -69 -2 -38 -7 -60 -20 -101 -59 -36 -34 -61 -50 -79 -50 -15 0 -25 -5
-23 -11 2 -6 7 -10 11 -10 4 1 18 1 31 1 13 0 48 20 80 46 l56 46 66 -7 c61
-6 65 -8 60 -28 -3 -12 -6 -25 -6 -29 0 -5 -5 -8 -11 -8 -5 0 -7 5 -3 11 7 11
-12 29 -32 29 -15 0 0 -103 19 -131 32 -45 77 -63 157 -64 69 0 79 3 119 32
l43 32 52 -21 c217 -89 420 -155 650 -214 44 -11 92 -33 134 -61 35 -23 72
-43 81 -43 40 0 241 164 241 197 0 25 -303 186 -470 250 -79 30 -274 95 -350
117 -145 40 -445 116 -461 116 -11 0 -46 -27 -79 -60z"/>
</g>
</svg>
